<svg viewBox="0 0 95 72" xmlns="http://www.w3.org/2000/svg">
<path d="M8.53933 66.1765C3.20225 60.353 0 54 0 43.4118C0 24.8824 13.3427 8.47059 32.0225 0L36.8258 6.88235C19.2135 16.4118 15.4775 28.5882 14.4101 36.5294C17.0787 34.9412 20.8146 34.4118 24.5506 34.9412C34.1573 36 41.6292 43.4118 41.6292 53.4706C41.6292 58.2353 39.4944 63 36.2921 66.7059C32.5562 70.4118 28.2865 72 22.9494 72C17.0787 72 11.7416 69.353 8.53933 66.1765ZM61.9101 66.1765C56.573 60.353 53.3708 54 53.3708 43.4118C53.3708 24.8824 66.7135 8.47059 85.3933 0L90.1966 6.88235C72.5843 16.4118 68.8483 28.5882 67.7809 36.5294C70.4494 34.9412 74.1854 34.4118 77.9214 34.9412C87.5281 36 95 43.4118 95 53.4706C95 58.2353 92.8652 63 89.6629 66.7059C86.4607 70.4118 81.6573 72 76.3202 72C70.4494 72 65.1124 69.353 61.9101 66.1765Z" fill="#FB2C29"/>
</svg>
